<svg width="1200" height="680" viewBox="0 0 1200 680" fill="none" xmlns="http://www.w3.org/2000/svg">
  <rect width="1200" height="680" rx="44" fill="#06111F"/>
  <rect x="94" y="88" width="1012" height="504" rx="42" fill="#0B1726" stroke="#00D9FF" stroke-opacity=".22"/>
  <rect x="150" y="146" width="276" height="388" rx="34" fill="#07111F" stroke="#38BDF8" stroke-opacity=".26"/>
  <text x="188" y="206" fill="#67E8F9" font-family="Inter,Arial" font-size="30" font-weight="900">STUDENT PORTAL</text>
  <rect x="188" y="256" width="200" height="56" rx="18" fill="#00D9FF" fill-opacity=".16"/>
  <rect x="188" y="340" width="200" height="56" rx="18" fill="#FFFFFF" fill-opacity=".08"/>
  <rect x="188" y="424" width="200" height="56" rx="18" fill="#FFFFFF" fill-opacity=".08"/>
  <rect x="482" y="146" width="568" height="388" rx="34" fill="#0F1C2E" stroke="#38BDF8" stroke-opacity=".24"/>
  <rect x="534" y="198" width="456" height="64" rx="24" fill="#00D9FF" fill-opacity=".14"/>
  <g fill="#FFFFFF" fill-opacity=".09">
    <rect x="534" y="300" width="456" height="58" rx="20"/>
    <rect x="534" y="382" width="456" height="58" rx="20"/>
    <rect x="534" y="464" width="456" height="58" rx="20"/>
  </g>
  <g fill="#00D9FF" fill-opacity=".32">
    <circle cx="574" cy="329" r="16"/>
    <circle cx="574" cy="411" r="16"/>
    <circle cx="574" cy="493" r="16"/>
  </g>
</svg>
