<svg width="1200" height="680" viewBox="0 0 1200 680" fill="none" xmlns="http://www.w3.org/2000/svg">
  <rect width="1200" height="680" rx="44" fill="#091018"/>
  <defs>
    <linearGradient id="orange" x1="147" x2="1064" y1="568" y2="132" gradientUnits="userSpaceOnUse">
      <stop stop-color="#F59E0B"/>
      <stop offset=".55" stop-color="#FCD34D"/>
      <stop offset="1" stop-color="#38BDF8"/>
    </linearGradient>
  </defs>
  <rect x="88" y="96" width="1025" height="492" rx="38" fill="#111827" stroke="#F59E0B" stroke-opacity=".2"/>
  <g opacity=".9">
    <rect x="166" y="158" width="186" height="118" rx="20" fill="#171E28" stroke="#F59E0B" stroke-opacity=".35"/>
    <rect x="507" y="134" width="186" height="118" rx="20" fill="#171E28" stroke="#F59E0B" stroke-opacity=".35"/>
    <rect x="846" y="158" width="186" height="118" rx="20" fill="#171E28" stroke="#F59E0B" stroke-opacity=".35"/>
    <text x="196" y="205" fill="#FDE68A" font-family="Inter,Arial" font-size="34" font-weight="900">1.5 GB/s</text>
    <text x="552" y="181" fill="#FDE68A" font-family="Inter,Arial" font-size="34" font-weight="900">45ms</text>
    <text x="880" y="205" fill="#FDE68A" font-family="Inter,Arial" font-size="34" font-weight="900">10 Gbps</text>
  </g>
  <path d="M144 464C288 338 391 535 522 394C640 266 720 440 836 316C930 216 1017 273 1072 198" stroke="url(#orange)" stroke-width="13" stroke-linecap="round"/>
  <path d="M180 536H1020" stroke="#F59E0B" stroke-opacity=".28" stroke-width="26" stroke-linecap="round"/>
  <rect x="242" y="486" width="246" height="38" rx="19" fill="#F59E0B" fill-opacity=".55"/>
  <rect x="514" y="486" width="246" height="38" rx="19" fill="#FCD34D" fill-opacity=".7"/>
  <rect x="786" y="486" width="166" height="38" rx="19" fill="#38BDF8" fill-opacity=".45"/>
  <path d="M586 240L516 386H608L560 526L712 326H620L680 240H586Z" fill="#FCD34D" filter="url(#glow)"/>
  <text x="428" y="458" fill="#FDE68A" font-family="Inter,Arial" font-size="29" font-weight="900">RECOVERY DATASTREAM</text>
</svg>
